<svg xmlns="http://www.w3.org/2000/svg" xmlns:xlink="http://www.w3.org/1999/xlink" width="1366" height="484" viewBox="0 0 1366 484">
  <defs>
    <path id="bubbles_illustration-a" d="M0,0 L1440,0 L1440,484 L0,484 L0,0 Z"/>
    <path id="bubbles_illustration-c" d="M8.80471549,86.3938186 C8.80471549,139.060485 24.4713822,173.727152 55.8047155,190.393819 C79.1380488,203.727152 117.138049,207.060485 169.804715,200.393819 C248.804715,190.393819 291.804715,180.393819 325.804715,180.393819 C359.804715,180.393819 400.804715,202.393819 417.804715,220.393819 C434.804715,238.393819 468.804715,273.393819 510.804715,258.393819 C538.804715,248.393819 549.471382,229.060485 542.804715,200.393819 C537.471382,185.727152 529.138049,171.393819 517.804715,157.393819 C506.471382,143.393819 504.138049,127.060485 510.804715,108.393819 C517.471382,78.3938186 513.471382,54.0604853 498.804715,35.3938186 C476.804715,7.39381859 8.80471549,7.39381859 8.80471549,86.3938186 Z"/>
  </defs>
  <g fill="none" fill-rule="evenodd" transform="translate(-37)">
    <mask id="bubbles_illustration-b" fill="#fff">
      <use xlink:href="#bubbles_illustration-a"/>
    </mask>
    <use fill="#FFF" xlink:href="#bubbles_illustration-a"/>
    <path fill="#50C5BA" d="M907.840026,-0.57794831 C961,-0.540124511 966,-0.57794831 1037.22611,-0.540124511 C1050.23338,12.7505596 1063.83037,28.0119795 1080.14578,43.2263539 C1130.20149,89.9040562 1189.9565,56.7033892 1184.10764,140.172351 C1178.25878,223.641313 1025.26459,241.033522 955.956686,176.402857 C907.463417,131.182152 892.050873,48.6080717 907.840026,-0.57794831 Z" mask="url(#bubbles_illustration-b)"/>
    <g mask="url(#bubbles_illustration-b)">
      <g transform="translate(247 -1)">
        <g transform="translate(369 345)">
          <mask id="bubbles_illustration-d" fill="#fff">
            <use xlink:href="#bubbles_illustration-c"/>
          </mask>
          <use fill="#FFC1C1" opacity=".9" transform="rotate(-176 276.766 140.217)" xlink:href="#bubbles_illustration-c"/>
          <rect width="584" height="151" x="-26" y="-11" mask="url(#bubbles_illustration-d)"/>
        </g>
        <path fill="#2F43C6" d="M521.68447,35.1286899 C458.023395,82.6710451 390,71.9180686 329.937029,69.2318896 C269.874057,66.5457106 254.501347,71.9180686 223.838155,97.0790851 C193.174964,122.240101 194.213352,125.09305 173.997956,134.60478 C153.78256,144.116509 120.69043,150.776241 90.0911504,131.758486 C69.6916308,119.079983 57.4677558,97.3229941 53.4195255,66.48752 C53.2940956,46.4298514 45.4231695,31.704228 29.8067471,22.3106499 C18.7599926,15.6658148 9.08213136,8.34311025 0.772909726,0.341839098 C116,0.342536303 455,0.342536303 559.494126,0.600520867 C553.693166,9.85815893 541.90253,20.0297583 521.68447,35.1286899 Z"/>
      </g>
    </g>
    <path fill="#FFC7C7" d="M413.712391,416.280003 C426.714743,426.065211 452.162758,405.596834 452.162758,380.424456 C452.162758,355.252078 421.094265,328.681235 403.833991,342.665889 C386.573717,356.650544 403.833991,362.244405 403.833991,380.424456 C403.833991,398.604506 400.710038,406.494796 413.712391,416.280003 Z" transform="rotate(-47 424.163 378.787)"/>
  </g>
</svg>
