<svg xmlns="http://www.w3.org/2000/svg" xmlns:xlink="http://www.w3.org/1999/xlink" width="960" height="453" viewBox="0 0 960 453">
  <defs>
    <rect id="header-bubbles-illustration-a" width="1366" height="506"/>
    <path id="header-bubbles-illustration-c" d="M488.583641,285 C557.271204,268.514985 639,242.34749 716.500717,242.34749 C767.965897,242.34749 804.972846,270.418653 776,333 C751,387 677.905579,421.699863 597,439 C468.195432,466.542435 307.765793,448.827245 266,439 C198,423 191,399 203,375 C210.047627,360.904746 233.591659,339.469447 310,314 C361,297 436.996425,297.380932 488.583641,285 Z"/>
  </defs>
  <g fill="none" fill-rule="evenodd" transform="translate(-157)">
    <mask id="header-bubbles-illustration-b" fill="#fff">
      <use xlink:href="#header-bubbles-illustration-a"/>
    </mask>
    <g mask="url(#header-bubbles-illustration-b)">
      <g transform="translate(156 -1)">
        <use fill="#00AB9A" xlink:href="#header-bubbles-illustration-c"/>
        <path fill="#2F43C6" d="M503.734649,21.0817182 C440.096147,68.6269773 372.082588,57.8542189 312.029881,55.1531043 C251.977175,52.4519896 236.608497,57.822778 205.956703,82.9860339 C175.304908,108.14929 176.34377,111.00354 156.134246,120.514115 C135.924721,130.024691 102.840136,136.67922 72.2419905,117.647294 C51.843227,104.959343 39.6165195,83.1914292 35.561868,52.3435515 C35.4318067,32.2783966 27.5588905,17.5454721 11.9431193,8.14477791 C7.89699532,5.70901127 4.03447701,3.18230584 0.355131576,0.563472438 C31,0.42628663 391,0.42628663 529.351435,0.42628663 C522.983574,6.3076649 514.569778,12.9866347 503.734649,21.0817182 Z"/>
        <path fill="#FFC1C1" d="M895.079452,147.957651 C913.886426,162.002302 953,124.874745 953,88.7449791 C953,52.6152134 908.061644,14.4782385 883.09589,34.5503305 C858.130137,54.6224226 883.09589,62.6512594 883.09589,88.7449791 C883.09589,114.838699 876.272478,133.913 895.079452,147.957651 Z" opacity=".776" transform="rotate(-50 912.5 90)"/>
      </g>
    </g>
  </g>
</svg>
