<svg xmlns="http://www.w3.org/2000/svg" width="26" height="26" viewBox="0 0 26 26">
  <path d="M20.775344,8.58215385 C19.9713713,7.17253147 18.8808337,6.05653147 17.5034442,5.2339021 C16.1258497,4.41123077 14.6219271,4 12.9906105,4 C11.3594989,4 9.85508428,4.41135664 8.47777677,5.2339021 C7.10026424,6.05648951 6.00976765,7.17253147 5.20579499,8.58215385 C4.40194533,9.99173427 4,11.531007 4,13.1999301 C4,15.2046853 4.57157175,17.0074126 5.71500228,18.6085734 C6.85830979,20.2098601 8.33529385,21.3178881 10.1458314,21.9327832 C10.3565831,21.9728112 10.5125968,21.9446573 10.6140364,21.849035 C10.7155171,21.7532867 10.7661959,21.6333706 10.7661959,21.4897902 C10.7661959,21.4658322 10.7641868,21.2502937 10.7602916,20.8429231 C10.7562733,20.4355524 10.7543872,20.0801678 10.7543872,19.7769371 L10.4851253,19.8246014 C10.3134487,19.8567832 10.0968747,19.8704196 9.83540319,19.8665594 C9.57405467,19.8628252 9.3027426,19.8347972 9.02183599,19.7826853 C8.74080638,19.731035 8.47941686,19.6112448 8.23746241,19.4235664 C7.99563098,19.2358881 7.82395444,18.9902238 7.7224738,18.686951 L7.6054123,18.4112867 C7.52738497,18.2277622 7.40454214,18.0238881 7.23671982,17.8004196 C7.06889749,17.5767413 6.89918907,17.4251049 6.72751253,17.3452587 L6.64554897,17.2852168 C6.59093394,17.2453147 6.54025513,17.1971888 6.49338952,17.1413427 C6.44656492,17.0854965 6.41150797,17.0296084 6.38809567,16.9736364 C6.36464237,16.9176224 6.38407745,16.8716783 6.44660592,16.8356364 C6.5091344,16.7995944 6.62213667,16.7820979 6.78610478,16.7820979 L7.02014579,16.8178881 C7.17624146,16.8499021 7.36932118,16.9455245 7.59963098,17.1053427 C7.82981777,17.265035 8.01904328,17.4726434 8.16734852,17.7280839 C8.3469385,18.0556084 8.56330752,18.3051748 8.81707062,18.4769091 C9.0706287,18.6486434 9.3262779,18.7343636 9.58377221,18.7343636 C9.84126651,18.7343636 10.0636629,18.7143916 10.2510433,18.6746573 C10.4382187,18.6347133 10.6138314,18.5746713 10.7777995,18.4948671 C10.8480364,17.9595664 11.0392711,17.5483357 11.3513394,17.2608811 C10.9065467,17.213049 10.5066515,17.141007 10.1514487,17.0452168 C9.79645103,16.9493007 9.42960364,16.7936364 9.05115262,16.5778042 C8.67249658,16.3622657 8.35837813,16.0946154 8.10871526,15.7753147 C7.85901139,15.4558462 7.654082,15.0364336 7.49421412,14.5174545 C7.33426424,13.9982657 7.25426879,13.3993566 7.25426879,12.7205594 C7.25426879,11.7540559 7.56260592,10.9315944 8.17915718,10.2527133 C7.89033713,9.52608392 7.91760364,8.71151049 8.26103872,7.80907692 C8.4873713,7.73711888 8.82301595,7.79111888 9.26780866,7.97074126 C9.71268337,8.15044755 10.0384055,8.30439161 10.245303,8.43202797 C10.4522005,8.55962238 10.6179727,8.66774825 10.7428656,8.75544056 C11.4688109,8.54787413 12.2179636,8.44406993 12.9905285,8.44406993 C13.7630934,8.44406993 14.51241,8.54787413 15.2383964,8.75544056 L15.6832301,8.46806993 C15.987426,8.27632168 16.3466469,8.1006014 16.7600319,7.94086713 C17.1736629,7.78121678 17.4899544,7.73724476 17.7085786,7.8092028 C18.0596401,8.71167832 18.0909248,9.52620979 17.8020228,10.2528392 C18.418533,10.9317203 18.7269932,11.7543916 18.7269932,12.7206853 C18.7269932,13.3994825 18.6467107,14.0002797 18.4870068,14.5234545 C18.3270979,15.0467133 18.1204055,15.4657063 17.8668474,15.7813147 C17.6130023,16.0968811 17.2968747,16.3624336 16.9184237,16.5779301 C16.5398907,16.7935944 16.1729203,16.9492587 15.8179226,17.0451748 C15.4627608,17.1410909 15.0628656,17.2131748 14.6180729,17.2610909 C15.0237494,17.6203357 15.2266287,18.1873986 15.2266287,18.962028 L15.2266287,21.4894545 C15.2266287,21.633035 15.2754214,21.7529091 15.3730888,21.8486993 C15.4706333,21.9443217 15.6246788,21.9724755 15.8354305,21.9324056 C17.6462141,21.3175944 19.1231982,20.2095245 20.2664647,18.6082378 C21.4096082,17.0070769 21.981385,15.2043497 21.981385,13.1995944 C21.9809749,11.5308811 21.5788246,9.99173427 20.775344,8.58215385 Z"/>
</svg>
