<svg xmlns="http://www.w3.org/2000/svg" width="26" height="26" viewBox="0 0 26 26">
  <g fill="none" fill-rule="evenodd" transform="translate(-1)">
    <rect width="26" height="26" opacity=".574"/>
    <path fill="#FFF" fill-rule="nonzero" d="M21.775344,8.58215385 C20.9713713,7.17253147 19.8808337,6.05653147 18.5034442,5.2339021 C17.1258497,4.41123077 15.6219271,4 13.9906105,4 C12.3594989,4 10.8550843,4.41135664 9.47777677,5.2339021 C8.10026424,6.05648951 7.00976765,7.17253147 6.20579499,8.58215385 C5.40194533,9.99173427 5,11.531007 5,13.1999301 C5,15.2046853 5.57157175,17.0074126 6.71500228,18.6085734 C7.85830979,20.2098601 9.33529385,21.3178881 11.1458314,21.9327832 C11.3565831,21.9728112 11.5125968,21.9446573 11.6140364,21.849035 C11.7155171,21.7532867 11.7661959,21.6333706 11.7661959,21.4897902 C11.7661959,21.4658322 11.7641868,21.2502937 11.7602916,20.8429231 C11.7562733,20.4355524 11.7543872,20.0801678 11.7543872,19.7769371 L11.4851253,19.8246014 C11.3134487,19.8567832 11.0968747,19.8704196 10.8354032,19.8665594 C10.5740547,19.8628252 10.3027426,19.8347972 10.021836,19.7826853 C9.74080638,19.731035 9.47941686,19.6112448 9.23746241,19.4235664 C8.99563098,19.2358881 8.82395444,18.9902238 8.7224738,18.686951 L8.6054123,18.4112867 C8.52738497,18.2277622 8.40454214,18.0238881 8.23671982,17.8004196 C8.06889749,17.5767413 7.89918907,17.4251049 7.72751253,17.3452587 L7.64554897,17.2852168 C7.59093394,17.2453147 7.54025513,17.1971888 7.49338952,17.1413427 C7.44656492,17.0854965 7.41150797,17.0296084 7.38809567,16.9736364 C7.36464237,16.9176224 7.38407745,16.8716783 7.44660592,16.8356364 C7.5091344,16.7995944 7.62213667,16.7820979 7.78610478,16.7820979 L8.02014579,16.8178881 C8.17624146,16.8499021 8.36932118,16.9455245 8.59963098,17.1053427 C8.82981777,17.265035 9.01904328,17.4726434 9.16734852,17.7280839 C9.3469385,18.0556084 9.56330752,18.3051748 9.81707062,18.4769091 C10.0706287,18.6486434 10.3262779,18.7343636 10.5837722,18.7343636 C10.8412665,18.7343636 11.0636629,18.7143916 11.2510433,18.6746573 C11.4382187,18.6347133 11.6138314,18.5746713 11.7777995,18.4948671 C11.8480364,17.9595664 12.0392711,17.5483357 12.3513394,17.2608811 C11.9065467,17.213049 11.5066515,17.141007 11.1514487,17.0452168 C10.796451,16.9493007 10.4296036,16.7936364 10.0511526,16.5778042 C9.67249658,16.3622657 9.35837813,16.0946154 9.10871526,15.7753147 C8.85901139,15.4558462 8.654082,15.0364336 8.49421412,14.5174545 C8.33426424,13.9982657 8.25426879,13.3993566 8.25426879,12.7205594 C8.25426879,11.7540559 8.56260592,10.9315944 9.17915718,10.2527133 C8.89033713,9.52608392 8.91760364,8.71151049 9.26103872,7.80907692 C9.4873713,7.73711888 9.82301595,7.79111888 10.2678087,7.97074126 C10.7126834,8.15044755 11.0384055,8.30439161 11.245303,8.43202797 C11.4522005,8.55962238 11.6179727,8.66774825 11.7428656,8.75544056 C12.4688109,8.54787413 13.2179636,8.44406993 13.9905285,8.44406993 C14.7630934,8.44406993 15.51241,8.54787413 16.2383964,8.75544056 L16.6832301,8.46806993 C16.987426,8.27632168 17.3466469,8.1006014 17.7600319,7.94086713 C18.1736629,7.78121678 18.4899544,7.73724476 18.7085786,7.8092028 C19.0596401,8.71167832 19.0909248,9.52620979 18.8020228,10.2528392 C19.418533,10.9317203 19.7269932,11.7543916 19.7269932,12.7206853 C19.7269932,13.3994825 19.6467107,14.0002797 19.4870068,14.5234545 C19.3270979,15.0467133 19.1204055,15.4657063 18.8668474,15.7813147 C18.6130023,16.0968811 18.2968747,16.3624336 17.9184237,16.5779301 C17.5398907,16.7935944 17.1729203,16.9492587 16.8179226,17.0451748 C16.4627608,17.1410909 16.0628656,17.2131748 15.6180729,17.2610909 C16.0237494,17.6203357 16.2266287,18.1873986 16.2266287,18.962028 L16.2266287,21.4894545 C16.2266287,21.633035 16.2754214,21.7529091 16.3730888,21.8486993 C16.4706333,21.9443217 16.6246788,21.9724755 16.8354305,21.9324056 C18.6462141,21.3175944 20.1231982,20.2095245 21.2664647,18.6082378 C22.4096082,17.0070769 22.981385,15.2043497 22.981385,13.1995944 C22.9809749,11.5308811 22.5788246,9.99173427 21.775344,8.58215385 Z"/>
  </g>
</svg>
