<svg xmlns="http://www.w3.org/2000/svg" width="26" height="26" viewBox="0 0 26 26">
  <g>
    <path d="M6.90382979,5.01376344 C5.85174468,5.01376344 5.00017021,5.87604301 5,6.93703226 C5,7.99905376 5.85157447,8.86116129 6.904,8.86116129 C7.95353191,8.86116129 8.80629787,7.99905376 8.80629787,6.93703226 C8.80629787,5.87587097 7.9533617,5.01376344 6.90382979,5.01376344 Z"/>
    <rect width="3.283" height="10.676" x="5.262" y="10.321"/>
    <path d="M16.9021277,10.0551398 C15.3051915,10.0551398 14.234383,10.940129 13.7960851,11.7793548 L13.7521702,11.7793548 L13.7521702,10.3206022 L10.6035745,10.3206022 L10.6034043,10.3206022 L10.6034043,20.9963871 L13.8834043,20.9963871 L13.8834043,15.7150108 C13.8834043,14.3226667 14.1457021,12.9740215 15.853617,12.9740215 C17.5370213,12.9740215 17.5594894,14.5664516 17.5594894,15.8043011 L17.5594894,20.9962151 L20.84,20.9962151 L20.84,15.1405591 C20.84,12.2662366 20.226383,10.0551398 16.9021277,10.0551398 Z"/>
  </g>
</svg>
