<svg xmlns="http://www.w3.org/2000/svg" width="26" height="26" viewBox="0 0 26 26">
  <g fill="#FFF" transform="translate(5 5)">
    <path d="M1.90382979,0.0137634409 C0.851744681,0.0137634409 0.000170212766,0.876043011 0,1.93703226 C0,2.99905376 0.851574468,3.86116129 1.904,3.86116129 C2.95353191,3.86116129 3.80629787,2.99905376 3.80629787,1.93703226 C3.80629787,0.875870968 2.9533617,0.0137634409 1.90382979,0.0137634409 Z"/>
    <rect width="3.283" height="10.676" x=".262" y="5.321"/>
    <path d="M11.9021277,5.05513978 C10.3051915,5.05513978 9.23438298,5.94012903 8.79608511,6.77935484 L8.75217021,6.77935484 L8.75217021,5.32060215 L5.60357447,5.32060215 L5.60340426,5.32060215 L5.60340426,15.9963871 L8.88340426,15.9963871 L8.88340426,10.7150108 C8.88340426,9.32266667 9.14570213,7.97402151 10.853617,7.97402151 C12.5370213,7.97402151 12.5594894,9.56645161 12.5594894,10.8043011 L12.5594894,15.9962151 L15.84,15.9962151 L15.84,10.1405591 C15.84,7.26623656 15.226383,5.05513978 11.9021277,5.05513978 Z"/>
  </g>
</svg>
