<svg xmlns="http://www.w3.org/2000/svg" width="26" height="26" viewBox="0 0 26 26">
  <path d="M21.9124454,7.7761875 C21.8867311,7.74525 21.8443025,7.73475 21.8081189,7.751625 C21.271976,7.9944375 20.7079148,8.169 20.1269556,8.272125 C20.7437311,7.7985 21.2032821,7.142625 21.4389352,6.3905625 C21.4503229,6.3545625 21.4385678,6.3151875 21.4097311,6.29175 C21.3807107,6.2683125 21.3404862,6.2653125 21.3087107,6.284625 C20.6140576,6.7051875 19.8617311,7.001625 19.0715678,7.1660625 C18.3714046,6.4243125 17.3937107,6 16.3818536,6 C14.323976,6 12.649976,7.708875 12.649976,9.8094375 C12.649976,10.0635 12.6740372,10.315125 12.7217923,10.5594375 C9.87154743,10.3798125 7.20644539,8.9829375 5.39432294,6.714 C5.37577192,6.69075 5.34766988,6.6778125 5.31828213,6.6808125 C5.28907804,6.6830625 5.26299641,6.6999375 5.24830253,6.725625 C4.91769029,7.304625 4.74301682,7.9670625 4.74301682,8.6409375 C4.74301682,9.808875 5.26281274,10.900875 6.14793519,11.6214375 C5.69224131,11.5655625 5.24720049,11.419125 4.84587396,11.1916875 C4.81887396,11.176125 4.78526172,11.1763125 4.75826172,11.19225 C4.73126172,11.208 4.71418008,11.23725 4.71344539,11.269125 L4.71307804,11.317875 C4.71307804,12.99525 5.79583315,14.4680625 7.33630253,14.9570625 C6.93056784,15.0238125 6.50958825,15.0193125 6.09577192,14.9386875 C6.06528213,14.932875 6.03332294,14.9435625 6.01238417,14.9675625 C5.99162906,14.9915625 5.98464947,15.025125 5.99420049,15.0555 C6.45613927,16.527375 7.73964947,17.5595625 9.23364947,17.6881875 C7.98742498,18.62025 6.51436376,19.1113125 4.95791478,19.1113125 C4.67120049,19.1113125 4.3824658,19.093875 4.09960866,19.0599375 C4.05920049,19.05525 4.01915968,19.0798125 4.00520049,19.119375 C3.99124131,19.1593125 4.00611886,19.2039375 4.04101682,19.226625 C5.72530253,20.3293125 7.67279233,20.911875 9.67318008,20.911875 C16.2165474,20.911875 20.1265882,15.486 20.1265882,10.2405 C20.1265882,10.0944375 20.1238331,9.949125 20.1181393,9.8041875 C20.8239964,9.277125 21.4299352,8.6319375 21.9185066,7.885125 C21.9403638,7.85175 21.937976,7.8073125 21.9124454,7.7761875 Z"/>
</svg>
