<svg xmlns="http://www.w3.org/2000/svg" width="26" height="26" viewBox="0 0 26 26">
  <path fill="#FFF" d="M17.9124454,1.7761875 C17.8867311,1.74525 17.8443025,1.73475 17.8081189,1.751625 C17.271976,1.9944375 16.7079148,2.169 16.1269556,2.272125 C16.7437311,1.7985 17.2032821,1.142625 17.4389352,0.3905625 C17.4503229,0.3545625 17.4385678,0.3151875 17.4097311,0.29175 C17.3807107,0.2683125 17.3404862,0.2653125 17.3087107,0.284625 C16.6140576,0.7051875 15.8617311,1.001625 15.0715678,1.1660625 C14.3714046,0.4243125 13.3937107,0 12.3818536,0 C10.323976,0 8.649976,1.708875 8.649976,3.8094375 C8.649976,4.0635 8.67403723,4.315125 8.72179233,4.5594375 C5.87154743,4.3798125 3.20644539,2.9829375 1.39432294,0.714 C1.37577192,0.69075 1.34766988,0.6778125 1.31828213,0.6808125 C1.28907804,0.6830625 1.26299641,0.6999375 1.24830253,0.725625 C0.917690289,1.304625 0.743016819,1.9670625 0.743016819,2.6409375 C0.743016819,3.808875 1.26281274,4.900875 2.14793519,5.6214375 C1.69224131,5.5655625 1.24720049,5.419125 0.845873962,5.1916875 C0.818873962,5.176125 0.785261717,5.1763125 0.758261717,5.19225 C0.731261717,5.208 0.714180084,5.23725 0.713445391,5.269125 L0.713078044,5.317875 C0.713078044,6.99525 1.79583315,8.4680625 3.33630253,8.9570625 C2.93056784,9.0238125 2.50958825,9.0193125 2.09577192,8.9386875 C2.06528213,8.932875 2.03332294,8.9435625 2.01238417,8.9675625 C1.99162906,8.9915625 1.98464947,9.025125 1.99420049,9.0555 C2.45613927,10.527375 3.73964947,11.5595625 5.23364947,11.6881875 C3.98742498,12.62025 2.51436376,13.1113125 0.957914778,13.1113125 C0.671200493,13.1113125 0.382465799,13.093875 0.0996086559,13.0599375 C0.0592004927,13.05525 0.0191596763,13.0798125 0.00520049266,13.119375 C-0.00875869102,13.1593125 0.00611886,13.2039375 0.0410168192,13.226625 C1.72530253,14.3293125 3.67279233,14.911875 5.67318008,14.911875 C12.2165474,14.911875 16.1265882,9.486 16.1265882,4.2405 C16.1265882,4.0944375 16.1238331,3.949125 16.1181393,3.8041875 C16.8239964,3.277125 17.4299352,2.6319375 17.9185066,1.885125 C17.9403638,1.85175 17.937976,1.8073125 17.9124454,1.7761875 Z" transform="translate(4 6)"/>
</svg>
